# xmcd
#
# Track frame offsets:
#	150
#	19580
#	43585
#	82120
#	105317
#	125545
#	148062
#	170682
#	192605
#	205475
#	251195
#	266287
#	281580
#	302095
#	325530
#
# Disc length: 4672 seconds
#
# Revision: 5
# Processed by: cddbd v1.5.2PL0 Copyright (c) Steve Scherf et al.
# Submitted via: audiograbber 1.83.01
#
DISCID=db123e0f
DTITLE=BB King - Lucille and Friends
DYEAR=1995
DGENRE=Blues
TTITLE0=When Love Comes To Town (with U2)
TTITLE1=Playin' With My Friends (with Robert Cray)
TTITLE2=To Know You Is To Love You (with Stevie Wonder)
TTITLE3=Caught A Touch Of Your Love (with Grover Washington Jr.)
TTITLE4=All You Ever Give Me Is The Blues (with Vernon Reid)
TTITLE5=You Shook Me (with John Lee Hooker)
TTITLE6=Spirit In The Dark (with Dianne Schuur)
TTITLE7=Can't Get Enough (with Mick Fleetwood and Stevie Nicks)
TTITLE8=Since I Met You Baby (with Gary Moore)
TTITLE9=BB's Blues (with Branford Marsalis)
TTITLE10=Better Not Look Down (with The Crusaders)
TTITLE11=Frosty (with Albert Collins)
TTITLE12=Hummingbird (with Leon Russell and Joe Walsh)
TTITLE13=Ghetto Woman (with Gary Wright, Mac Rebennack and Ringo Starr)
TTITLE14=Let The Good Times Roll (with Bobby Bland)
EXTD=
EXTT0=with U2
EXTT1=with Robert Clay
EXTT2=with Stevie Wonder
EXTT3=with Grover Washington Jr.
EXTT4=with Vernon Reid
EXTT5=with John Lee Hooker
EXTT6=with Dianne Schuur
EXTT7=with Mick Fleetwood and Stevie Nicks
EXTT8=with Gary Moore
EXTT9=with Branford Marsalis
EXTT10=with The Crusaders
EXTT11=with Albert Collins
EXTT12=with Leon Russell and Joe Walsh
EXTT13=with Gary Wright, Mac Rebennack and Ringo Starr
EXTT14=with Bobby Bland
PLAYORDER=
